HIERARCHY
ROOT root
{
	OFFSET 0.000000 0.000000 0.000000
	CHANNELS 6 Xposition Yposition Zposition Zrotation Yrotation Xrotation
	JOINT lhip
	{
		OFFSET 0.058581 -0.082280 -0.017664
		CHANNELS 3 Zrotation Yrotation Xrotation
		JOINT lknee
		{
			OFFSET 0.043451 -0.386469 0.008037
			CHANNELS 3 Zrotation Yrotation Xrotation
			JOINT lankle
			{
				OFFSET -0.014790 -0.426874 -0.037428
				CHANNELS 3 Zrotation Yrotation Xrotation
				JOINT ltoe
				{
					OFFSET 0.041054 -0.060286 0.122042
					CHANNELS 3 Zrotation Yrotation Xrotation
					End Site
					{
						OFFSET 0.000000 0.000000 0.000000
					}
				}
			}
		}
	}
	JOINT rhip
	{
		OFFSET -0.060310 -0.090513 -0.013543
		CHANNELS 3 Zrotation Yrotation Xrotation
		JOINT rknee
		{
			OFFSET -0.043257 -0.383688 -0.004843
			CHANNELS 3 Zrotation Yrotation Xrotation
			JOINT rankle
			{
				OFFSET 0.019056 -0.420046 -0.034562
				CHANNELS 3 Zrotation Yrotation Xrotation
				JOINT rtoe
				{
					OFFSET -0.034840 -0.062106 0.130323
					CHANNELS 3 Zrotation Yrotation Xrotation
					End Site
					{
						OFFSET 0.000000 0.000000 0.000000
					}
				}
			}
		}
	}
	JOINT lowerback
	{
		OFFSET 0.004439 0.124404 -0.038385
		CHANNELS 3 Zrotation Yrotation Xrotation
		JOINT upperback
		{
			OFFSET 0.004488 0.137956 0.026820
			CHANNELS 3 Zrotation Yrotation Xrotation
			JOINT chest
			{
				OFFSET -0.002265 0.056032 0.002855
				CHANNELS 3 Zrotation Yrotation Xrotation
				JOINT lowerneck
				{
					OFFSET -0.013390 0.211636 -0.033468
					CHANNELS 3 Zrotation Yrotation Xrotation
					JOINT upperneck
					{
						OFFSET 0.010113 0.088937 0.050410
						CHANNELS 3 Zrotation Yrotation Xrotation
						End Site
						{
							OFFSET 0.000000 0.000000 0.000000
						}
					}
				}
				JOINT lclavicle
				{
					OFFSET 0.071702 0.114000 -0.018898
					CHANNELS 3 Zrotation Yrotation Xrotation
					JOINT lshoulder
					{
						OFFSET 0.122921 0.045205 -0.019046
						CHANNELS 3 Zrotation Yrotation Xrotation
						JOINT lelbow
						{
							OFFSET 0.255332 -0.015649 -0.022946
							CHANNELS 3 Zrotation Yrotation Xrotation
							JOINT lwrist
							{
								OFFSET 0.265709 0.012698 -0.007375
								CHANNELS 3 Zrotation Yrotation Xrotation
								End Site
								{
									OFFSET 0.000000 0.000000 0.000000
								}
							}
						}
					}
				}
				JOINT rclavicle
				{
					OFFSET -0.082954 0.112472 -0.023707
					CHANNELS 3 Zrotation Yrotation Xrotation
					JOINT rshoulder
					{
						OFFSET -0.113228 0.046853 -0.008472
						CHANNELS 3 Zrotation Yrotation Xrotation
						JOINT relbow
						{
							OFFSET -0.260127 -0.014369 -0.031269
							CHANNELS 3 Zrotation Yrotation Xrotation
							JOINT rwrist
							{
								OFFSET -0.269108 0.006794 -0.006027
								CHANNELS 3 Zrotation Yrotation Xrotation
								End Site
								{
									OFFSET 0.000000 0.000000 0.000000
								}
							}
						}
					}
				}
			}
		}
	}
}
MOTION
Frames: 7
Frame Time: 0.033333
-1.590864 0.289200 0.967574 83.342788 -2.283049 83.349143 -1.411512 -2.754821 -15.777146 -3.859435 -1.411702 8.641517 -0.276107 7.331812 -5.172954 0.000000 -0.000000 0.000000 -0.561758 -3.275018 17.344302 0.080985 10.008972 22.950343 5.064016 -3.936225 -13.785814 0.000000 -0.000000 0.000000 0.096279 6.971403 12.558338 0.063527 0.410234 -2.914281 -1.133437 1.867795 1.964919 3.715545 2.924944 -2.532693 -4.051491 -2.811256 15.980604 -31.927793 7.809297 -2.011845 -54.091037 -1.024212 8.876559 6.169939 -24.189197 7.431488 -2.183653 -0.898963 -2.147326 31.712763 1.530643 -1.348672 48.275657 11.311527 15.178552 -11.420234 27.757842 -7.537976 2.559798 2.349786 -2.308959 
-1.544950 0.293702 0.972921 84.151884 -2.745041 83.076201 -2.133746 -3.729615 -14.933419 -5.418846 -2.817245 12.382200 0.966756 8.020434 -3.937482 0.000000 -0.000000 0.000000 -1.946858 -3.271358 14.583931 0.830660 7.644844 31.682117 8.321881 -2.903287 -3.961201 0.000000 -0.000000 0.000000 -0.314777 6.483855 12.050224 0.262927 0.245538 -2.738985 -1.373664 1.516021 1.914167 3.505688 2.142840 -1.962039 -3.791849 -1.761146 16.160973 -32.017087 8.559920 -2.145304 -54.139862 -1.204350 8.823605 6.475568 -22.299810 6.948603 -2.759774 -1.084004 -1.577446 31.671777 0.413408 -1.547576 49.597918 10.552562 15.940399 -11.659866 26.030069 -7.514168 3.098540 3.937522 -2.526216 
-1.501135 0.297922 0.977447 84.588545 -3.160868 82.910177 -2.966629 -3.880511 -12.416890 -6.570288 -3.505121 13.246630 4.560798 7.984907 -5.301333 0.000000 -0.000000 0.000000 -3.221060 -2.851438 9.605188 2.313398 6.507177 41.464998 10.027055 -2.574939 8.949977 0.000000 -0.000000 0.000000 -0.820702 5.581063 11.727643 0.520012 0.684879 -2.483832 -1.498873 1.152657 1.884819 2.888123 1.104766 -1.631818 -3.479959 -0.253226 15.207157 -31.789604 8.578309 -1.544955 -54.353235 -1.460030 8.389222 6.803584 -21.715136 6.983015 -4.610850 -0.362149 -1.566442 31.350504 -0.319503 -1.538544 50.739222 10.263489 15.738464 -11.641184 24.789307 -8.638796 4.759746 2.789816 -2.172457 
-1.450950 0.301609 0.981469 85.776508 -3.404390 83.008970 -4.551108 -3.176090 -9.346824 -6.704363 -5.456654 13.035329 7.342651 7.975595 -5.880826 0.000000 -0.000000 0.000000 -3.689030 -2.724383 1.671655 3.811648 4.338430 53.098796 6.228955 -6.624254 12.257630 0.000000 -0.000000 0.000000 -1.484507 3.726497 11.326188 0.874794 0.964278 -2.328344 -1.671891 0.551254 2.560063 3.217524 1.450170 -3.210250 -4.403345 0.254332 15.947545 -31.958832 8.319221 -1.563483 -53.175703 -2.505810 8.100150 5.891642 -21.144621 7.215081 -5.187245 -0.647600 -1.889587 32.829929 -0.486294 -1.807794 49.898418 10.141771 16.283125 -11.036691 23.388672 -9.620769 5.309366 3.002512 -1.343904 
-1.419715 0.302821 0.985621 87.015627 -3.107113 82.269388 -5.347291 -2.586332 -6.088127 -5.996682 -7.074520 12.339058 8.394438 7.924153 -6.414489 0.000000 -0.000000 0.000000 -3.462326 -3.112536 -1.606796 1.866216 1.374269 57.352913 4.386271 -9.199393 7.821557 0.000000 -0.000000 0.000000 -1.334218 2.538932 12.358312 1.083105 1.026382 -3.204780 -1.579325 -0.307135 2.303967 3.130730 1.865597 -1.947594 -4.938223 0.506434 16.116629 -31.863129 7.906340 -0.514971 -52.934040 -2.751796 7.696152 6.174854 -21.333898 7.278629 -5.534766 -0.433575 -1.860080 33.106274 -0.111755 -1.127561 49.721208 9.194271 16.238284 -11.026525 22.427089 -9.753360 5.576188 3.173033 -0.995336 
-1.379254 0.303638 0.991327 88.554427 -2.467315 81.394486 -5.658890 -1.826193 -1.800055 -5.476031 -9.662011 11.063336 8.890231 8.575577 -7.363389 0.000000 -0.000000 0.000000 -2.809596 -3.027971 -5.744279 0.123620 -1.813893 60.630933 2.495775 -11.876514 4.223280 0.000000 -0.000000 0.000000 -0.998881 0.827682 13.336929 1.229546 1.088852 -3.424147 -1.371337 -0.957867 2.385445 3.096497 2.148621 -1.968957 -5.407934 0.538866 16.112277 -31.603633 7.238263 -0.500928 -52.701704 -3.404216 7.686840 6.303187 -21.520543 7.813971 -5.649904 -0.351306 -1.184647 33.477636 -0.290742 -1.358069 49.788326 8.386568 15.822806 -11.080429 21.852165 -10.057139 6.010089 1.873136 -0.415840 
-1.339779 0.303777 0.995873 89.578174 -1.865073 80.901943 -5.359671 -0.566450 2.336038 -5.264083 -12.152510 9.391453 9.047608 8.777135 -8.634566 0.000000 -0.000000 0.000000 -2.268728 -2.485781 -9.779525 0.708242 -3.379731 61.098601 2.460663 -11.508174 0.358225 0.000000 -0.000000 0.000000 -0.820368 -0.554301 13.567593 1.531347 1.139165 -3.187039 -1.145035 -1.367931 2.577015 3.194112 2.889706 -2.108994 -5.610094 0.028854 15.829096 -31.006104 6.509076 -0.285550 -52.837305 -4.443113 7.812815 6.547164 -22.193834 7.456606 -5.272913 -0.153586 -1.527759 33.508605 -0.315396 -1.153132 50.137528 7.648382 15.085940 -11.236205 21.085952 -10.266903 6.248687 1.615829 -1.072407 
